<?xml version="1.0" encoding="utf-8"?>
<!-- Generator: Adobe Illustrator 24.1.2, SVG Export Plug-In . SVG Version: 6.00 Build 0)  -->
<svg version="1.1" id="Layer_1" xmlns="http://www.w3.org/2000/svg" xmlns:xlink="http://www.w3.org/1999/xlink" x="0px" y="0px"
	 viewBox="0 0 1236.9 291.5" style="enable-background:new 0 0 1236.9 291.5;" xml:space="preserve">
<style type="text/css">
	.st0{fill:#E52325;}
	.st1{fill:#020203;}
</style>
<path class="st0" d="M57.3,235.1c-26-39.9-20-90.4,11.2-115.1c36.4-28.7,104.8-6.2,137.5,35.3c76.8-131.9,168.7-69.9,148.3,17.4
	c-16.1,68.7-49.8,75.5-58.8,118.8c14.9-12.5,109.8-95,98.6-195.9c-1.9-17.4-10.9-56.6-44.6-79.9C314.5-8.5,272.1-4.5,238.1,26.1
	c-36.6,32.9-41.2,78.7-40.7,85.2c-6.7-12.7-62.4-80.4-127.8-56.8c-35.1,12.7-53.2,31.8-65.4,65C-8.3,153.9,6.5,205.6,57.3,235.1z"/>
<g>
	<path class="st1" d="M240.2,181.7c-6-4.4-15.5-14.3-15.5-32.5c0-22.6,15-37.7,37.9-37.7c5.3,0,14.4,0.8,22.9,7.8
		c9.3,7.4,14.5,19.9,14.5,32.7c0,9.3-3.1,16.9-6.8,22.2c-5.6,7.8-16.3,14.8-30.6,14.8C256.7,189,248.1,187.5,240.2,181.7z
		 M259.7,118.6c-10.3,0-20.4,8-20.4,26.6c0,24.4,13,36.4,25.3,36.4c10.2,0,20.6-8,20.6-26.7C285.2,130.8,272.1,118.6,259.7,118.6z"
		/>
	<path class="st1" d="M337.4,135.4c9,0,7.6-1,11.7-1c5.5,0,5.7,7.4,5.7,11.1c0,2.8,0,6.6-2.8,6.6c-1.3,0-1.8-0.9-2.2-1.8
		c-0.4-0.7-0.7-1.3-1-2c-0.4-0.9-0.7-1.8-1.2-2.8c-1.5-3-3.7-4.2-7.4-4.2c-1.5,0-3,0-3.6,0.8c-0.3,0.4-0.8,1.7-0.8,10.2v18.3
		c0,6.6,0.5,8.2,1,8.8c0.5,0.7,1.4,1,2.2,1.3c1.1,0.4,2.9,1.1,2.9,2.9c0,4.2-6.3,4-12.1,4c-5.8,0-12.1,0.2-12.1-4
		c0-1.7,1.7-2.4,2.9-2.9c0.8-0.3,1.7-0.6,2.2-1.3c0.5-0.6,1-2.1,1-8.8v-18.3c0-8.5-0.5-9.8-0.8-10.2c-0.6-0.8-2-0.8-3.6-0.8
		c-3.8,0-5.9,1.2-7.4,4.2c-0.5,0.9-0.8,1.8-1.2,2.8c-0.3,0.7-0.6,1.3-1,2c-0.4,0.9-0.9,1.8-2.2,1.8c-2.8,0-2.8-3.9-2.8-6.6
		c0-5.3,0.8-11.1,5.8-11.1c1.8,0,4.1,1,11.6,1H337.4z"/>
</g>
<g>
	<path class="st1" d="M447.7,113.8c1.2-0.3,2.4-0.9,4-0.9c1.6,0,2.7,1.2,3.2,2c2.2,3.5,3.8,10.5,3.8,13.8c0,1.8-0.3,4.4-3.3,4.4
		c-2.2,0-3.7-1.7-6.1-4.6c-1.9-2.3-4-4.9-7.2-6.7c-3.7-2-8.5-3-12.1-3c-11,0-21.8,7-21.8,26.1c0,23.5,13.6,35,26.2,35
		c4.8,0,11.1-1.5,15.3-5.6c1.5-1.5,2.3-2.8,3.8-4.5c0.6-0.7,1.2-1.4,2.3-1.4c1.2,0,3.3,0.6,3.3,5.2c0,6-2.1,11.6-6.3,10.2
		c-8.3,4.5-15.5,5.1-19.8,5.1c-23,0-39.3-16.4-39.3-39.8c0-25.4,18.9-37.6,36.7-37.6c5.8,0,12.5,1.6,16.3,2.7L447.7,113.8z"/>
	<path class="st1" d="M481.7,160.7c-3.3,0-4-0.1-4,2.9c0,8.5,6.9,15.8,15.9,15.8c4.2,0,8.2-1.5,10.6-3.5l1.8-1.4
		c1.2-1,2.4-2.1,4.1-2.1c1.3,0,2.7,0.9,2.7,2.5c0,1-0.7,3.2-4.8,6.6c-7,5.9-12.7,6.9-17.4,6.9c-15.5,0-26.2-11.6-26.2-26.2
		c0-16.2,11.4-27.8,27-27.8c13.2,0,21.7,8.2,21.7,21.1c0,4.8-1.3,5.2-5.8,5.2H481.7z M498.2,154.8c3.1,0,3.3-0.7,3.3-1.9
		c0-6.7-5.3-11.8-11.8-11.8c-6.3,0-11.4,5.1-11.4,11.8c0,1.2,0.2,1.9,3.2,1.9H498.2z"/>
	<path class="st1" d="M535.6,140.6c0,0.7,0,1.3,0.5,1.3c0.4,0,0.7-0.4,1.2-0.9c0.5-0.5,2.2-1.7,2.5-1.9c3.3-2.3,6.7-4.7,12.2-4.7
		c10.8,0,21.9,8.3,21.9,25.4c0,18.7-12.7,28.5-24,28.5c-2.5,0-6.6-0.9-9.6-2c-2.5-1-3.3-1.7-3.8-1.7c-0.9,0-1.1,3.3-1.1,4.1v2.2
		c0,1.4,0,6.2,1.3,8c0.7,0.9,2.1,1.1,3,1.3c1.4,0.3,3.6,1,3.6,3.2c0,3.6-6.6,3.6-13.5,3.6c-4.7,0-12.7,0.5-12.7-3.8
		c0-1.9,1.7-2.5,2.9-3c0.6-0.2,1.4-0.5,2-1.1c1-1.1,1.8-3.8,1.8-22.1v-8.5c0-15.4,0-21.2-2.1-22.9c-1-0.8-1.7-0.4-4-1.5
		c-0.8-0.4-1.5-0.9-1.5-2.1c0-1.9,1.7-2.9,4-3.8c2.4-1,9.2-3.3,12.5-3.3c2.7,0,2.8,1.9,2.8,3.4V140.6z M536.1,169.9
		c0,4,0.1,4.8,1,6.1c2.5,3.6,7.4,5.3,11,5.3c6.5,0,12.6-5.4,12.6-17.7c0-13.2-6.2-19.7-14.1-19.7c-6,0-10.6,3.8-10.6,11.8V169.9z"/>
	<path class="st1" d="M623.3,134.4c5.5,0,12.1-0.3,12.1,4.1c0,1.8-1.9,2.3-2.9,2.8c-1.5,0.6-2,1-2.2,1.3c-0.5,0.6-1,2.3-1,8.8v19.3
		c0,3.6-0.5,10.8,2.9,10.5c1.1-0.1,1.2-0.7,2.7-0.7c4.3,0,4.5,5.9,4.5,11c0,3.7-0.2,8.9-3.3,8.9c-2.7,0-3.1-3.1-3.4-4.6
		c-0.5-2.7-1.3-4.6-2.3-5.9c-2-2.5-5.4-2.8-8.7-2.8h-25.3c-3.3,0-6.6,0.2-8.7,2.8c-0.8,1-1.8,2.9-2.3,5.9c-0.3,1.4-0.7,4.6-3.4,4.6
		c-3.7,0-3.7-6.6-3.7-8.9c0-4.9,0.3-11.4,4.9-11.4c0.7,0,1,0.2,1.3,0.4c0.3,0.2,0.7,0.6,1.3,0.6c3.5,0,5.8-11.1,7-16.5
		c1.3-5.7,2.1-10.6,2.1-15.6c0-2.3-0.1-4.3-2-6.2c-0.9-0.9-2-1.3-3-1.6c-1.6-0.5-3-1-3-2.8c0-1.8,1-3.9,6.3-3.9H623.3z M617.3,151.3
		c0-2.2-0.2-9.1-1.7-10.3c-0.4-0.3-1.1-0.7-5.9-0.7c-1.5,0-3.7,0.1-5.2,1.9c-1.4,1.7-1.5,4.4-2.2,9.1c-2.5,17.6-5.8,25.5-5.8,28.3
		c0,1.4,1.2,1.4,2.2,1.4h9.8c2.4,0,6,0.1,7.5-1.4c1.3-1.3,1.3-3.9,1.3-9.1V151.3z"/>
	<path class="st1" d="M649,152.4c0-5.4-0.3-7.6-1-8.8c-1.1-1.7-5.1-1.1-5.1-4.4c0-3.5,5.8-3.8,12.1-3.8c6.3,0,12.1,0.3,12.1,3.8
		c0,3.3-4,2.7-5.1,4.4c-0.7,1.1-1,3.4-1,8.8v18.3c0,5.9,0.5,8.5,1.2,9.1c1.4,1.2,4.3,1.4,8.8,1.4c7.7,0,8.8-0.7,9.6-1.7
		c0.7-0.9,1-3.6,1-8.8v-18.3c0-5.4-0.3-7.6-1-8.8c-1.1-1.7-5.1-1.1-5.1-4.4c0-3.5,5.8-3.8,12.1-3.8c6.3,0,12.1,0.3,12.1,3.8
		c0,3.3-4,2.7-5.1,4.4c-0.7,1.1-1,3.4-1,8.8v18.3c0,8.1,1,10.5,2.7,10.5c1.2,0,2.2-0.6,3.6-0.6c1.8,0,4.1,1.8,4.1,10.6
		c0,4.4-0.7,7.8-2.5,7.8c-3.5,0-2.7-5.7-5.5-9.1c-2.2-2.5-3.8-2.8-13.7-2.8c-11.6,0-22.3,0.5-27.2,0.5c-6.3,0-12.1-0.3-12.1-3.8
		c0-3.3,4-2.7,5.1-4.4c0.7-1.1,1-3.4,1-8.8V152.4z"/>
	<path class="st1" d="M752,172.9c0,1.3,0.2,4.4,0.9,5.3c0.6,0.8,1.7,1,2.7,1.2c1.8,0.4,3.4,0.7,3.4,2.7c0,3.9-6.7,6.5-10.9,6.5
		c-4.1,0-5.7-2.5-6.7-4c-0.9-1.2-1.3-1.4-1.5-1.4c-0.7,0-1.9,0.9-2.2,1.1c-2,1.5-6.6,4.3-13,4.3c-10.1,0-16.9-6.4-16.9-15.9
		c0-9.1,6.3-17.6,22.3-17.6c2.9,0,6.5,0.3,10.2,0.9v-5.5c0-7-3.8-9.5-7.6-9.5c-4.6,0-7.4,2.9-9,4.6c-1.4,1.6-1.9,2.4-2.9,3.4
		c-1.5,1.4-3.1,1.9-4.9,1.9c-3.3,0-4.5-2.3-4.5-4.7c0-5,6-11.7,21.2-11.7c10.4,0,14.8,3.5,16.6,5.9c2.7,3.5,2.9,8.3,2.9,15.8V172.9z
		 M740.2,162.6c-3.2-0.7-6.1-0.9-7.8-0.9c-8.4,0-11.6,4.6-11.6,9.4c0,4.6,2.8,9.1,10.2,9.1c2.3,0,5.9-0.4,7.9-3.4
		c1.2-1.9,1.3-4.5,1.3-6.5V162.6z"/>
	<path class="st1" d="M792.9,152.4c0-2.7,0-7.2-1-8.8c-0.5-0.7-1.5-1-2.2-1.3c-0.9-0.3-2.9-1-2.9-3.1c0-4.3,7.7-3.8,12.1-3.8
		c4.2,0,12.1-0.5,12.1,3.9c0,1.9-1.8,2.5-2.9,3c-0.7,0.3-1.7,0.6-2.2,1.3c-0.6,0.9-1,3.1-1,5.9v2.9c0,0.5,0,3.2,0.6,3.9
		c0.4,0.5,1.5,0.9,2.8,0.9h2.7c3.1,0,4.7-2.2,5.8-4.5c2-4,2-6.7,4.2-11.2c1.1-2.2,3.7-6.6,9.7-6.6c4,0,8.5,2.1,8.5,7
		c0,3.4-2.8,6.1-6.4,6.1c-1.6,0-2.7-0.4-3.7-1.1c-0.8-0.5-1.3-0.9-2.7-1.1c-1.8,2.5-1,3.5-3.1,8c-0.5,1.2-1.8,3.8-4.1,5.5v0.3
		c2.2,0.5,5.5,1.8,8,4.6c2,2.3,3.1,5.3,4.4,8.4c1.6,4,2.8,5.2,4.6,6.1c1.1,0.6,1.8,0.7,2.8,0.9c2.2,0.6,3.7,1.4,3.7,3.4
		c0,2-2.4,5-8.8,5c-2.4,0-5.9-0.7-8.2-2.4c-2.8-2.1-4.2-6.1-5.2-9c-1.6-5-2.7-9.4-5.3-11.6c-1.6-1.4-3.5-1.7-5.4-1.7
		c-2.9,0-3.6,0.2-3.9,0.4c-1,0.6-0.9,2.8-0.9,7.1v2.9c0,3.4,0.5,5.2,1,5.9c0.2,0.3,0.7,0.7,2.2,1.3c1.1,0.4,2.9,1,2.9,2.9
		c0,4.2-6.3,4-12.1,4c-4.2,0-12.1,0.5-12.1-3.9c0-1.9,1.8-2.5,2.9-3c0.7-0.3,1.7-0.6,2.2-1.3c1-1.5,1-6.1,1-8.8V152.4z"/>
	<path class="st1" d="M924.6,113.8c1.2-0.3,2.4-0.9,4-0.9c1.6,0,2.7,1.2,3.2,2c2.2,3.5,3.8,10.5,3.8,13.8c0,1.8-0.3,4.4-3.3,4.4
		c-2.2,0-3.7-1.7-6.1-4.6c-1.9-2.3-4-4.9-7.2-6.7c-3.7-2-8.5-3-12.1-3c-11,0-21.8,7-21.8,26.1c0,23.5,13.6,35,26.2,35
		c4.8,0,11.1-1.5,15.3-5.6c1.5-1.5,2.3-2.8,3.8-4.5c0.6-0.7,1.2-1.4,2.3-1.4c1.2,0,3.3,0.6,3.3,5.2c0,6-2.1,11.6-6.3,10.2
		c-8.3,4.5-15.5,5.1-19.8,5.1c-23,0-39.3-16.4-39.3-39.8c0-25.4,18.9-37.6,36.7-37.6c5.8,0,12.5,1.6,16.3,2.7L924.6,113.8z"/>
	<path class="st1" d="M958.5,160.7c-3.3,0-4-0.1-4,2.9c0,8.5,6.9,15.8,15.9,15.8c4.2,0,8.2-1.5,10.6-3.5l1.8-1.4
		c1.2-1,2.4-2.1,4.1-2.1c1.3,0,2.7,0.9,2.7,2.5c0,1-0.7,3.2-4.8,6.6c-7,5.9-12.7,6.9-17.4,6.9c-15.5,0-26.2-11.6-26.2-26.2
		c0-16.2,11.4-27.8,27-27.8c13.2,0,21.7,8.2,21.7,21.1c0,4.8-1.3,5.2-5.8,5.2H958.5z M975,154.8c3.1,0,3.3-0.7,3.3-1.9
		c0-6.7-5.3-11.8-11.8-11.8c-6.3,0-11.4,5.1-11.4,11.8c0,1.2,0.2,1.9,3.2,1.9H975z"/>
	<path class="st1" d="M1012.5,140.6c0,0.7,0,1.3,0.5,1.3c0.4,0,0.7-0.4,1.2-0.9c0.5-0.5,2.2-1.7,2.5-1.9c3.3-2.3,6.7-4.7,12.2-4.7
		c10.8,0,21.9,8.3,21.9,25.4c0,18.7-12.7,28.5-24,28.5c-2.5,0-6.6-0.9-9.6-2c-2.5-1-3.3-1.7-3.8-1.7c-0.9,0-1.1,3.3-1.1,4.1v2.2
		c0,1.4,0,6.2,1.3,8c0.7,0.9,2.1,1.1,3,1.3c1.4,0.3,3.6,1,3.6,3.2c0,3.6-6.6,3.6-13.5,3.6c-4.7,0-12.7,0.5-12.7-3.8
		c0-1.9,1.7-2.5,2.9-3c0.6-0.2,1.4-0.5,2-1.1c1-1.1,1.8-3.8,1.8-22.1v-8.5c0-15.4,0-21.2-2.1-22.9c-1-0.8-1.7-0.4-4-1.5
		c-0.8-0.4-1.5-0.9-1.5-2.1c0-1.9,1.7-2.9,4-3.8c2.4-1,9.2-3.3,12.5-3.3c2.7,0,2.8,1.9,2.8,3.4V140.6z M1013,169.9
		c0,4,0.1,4.8,1,6.1c2.5,3.6,7.4,5.3,11,5.3c6.5,0,12.6-5.4,12.6-17.7c0-13.2-6.2-19.7-14.1-19.7c-6,0-10.6,3.8-10.6,11.8V169.9z"/>
	<path class="st1" d="M1100.2,134.4c5.5,0,12.1-0.3,12.1,4.1c0,1.8-1.9,2.3-2.9,2.8c-1.5,0.6-2,1-2.2,1.3c-0.5,0.6-1,2.3-1,8.8v19.3
		c0,3.6-0.5,10.8,2.9,10.5c1.1-0.1,1.2-0.7,2.7-0.7c4.3,0,4.5,5.9,4.5,11c0,3.7-0.2,8.9-3.3,8.9c-2.7,0-3.1-3.1-3.4-4.6
		c-0.5-2.7-1.3-4.6-2.3-5.9c-2-2.5-5.4-2.8-8.7-2.8h-25.3c-3.3,0-6.6,0.2-8.7,2.8c-0.8,1-1.8,2.9-2.3,5.9c-0.3,1.4-0.7,4.6-3.4,4.6
		c-3.7,0-3.7-6.6-3.7-8.9c0-4.9,0.3-11.4,4.9-11.4c0.7,0,1,0.2,1.3,0.4c0.3,0.2,0.7,0.6,1.3,0.6c3.5,0,5.8-11.1,7-16.5
		c1.3-5.7,2.1-10.6,2.1-15.6c0-2.3-0.1-4.3-2-6.2c-0.9-0.9-2-1.3-3-1.6c-1.6-0.5-3-1-3-2.8c0-1.8,1-3.9,6.3-3.9H1100.2z
		 M1094.1,151.3c0-2.2-0.2-9.1-1.7-10.3c-0.4-0.3-1.1-0.7-5.9-0.7c-1.5,0-3.7,0.1-5.2,1.9c-1.4,1.7-1.5,4.4-2.2,9.1
		c-2.5,17.6-5.8,25.5-5.8,28.3c0,1.4,1.2,1.4,2.2,1.4h9.8c2.4,0,6,0.1,7.5-1.4c1.3-1.3,1.3-3.9,1.3-9.1V151.3z"/>
	<path class="st1" d="M1125.8,152.4c0-5.4-0.3-7.6-1-8.8c-1.1-1.7-5.1-1.1-5.1-4.4c0-3.5,5.8-3.8,12.1-3.8c6.3,0,12.1,0.3,12.1,3.8
		c0,3.3-4,2.7-5.1,4.4c-0.7,1.1-1,3.4-1,8.8v18.3c0,5.9,0.5,8.5,1.2,9.1c1.4,1.2,4.3,1.4,8.8,1.4c7.8,0,8.8-0.7,9.6-1.7
		c0.7-0.9,1-3.6,1-8.8v-18.3c0-5.4-0.3-7.6-1-8.8c-1.1-1.7-5.1-1.1-5.1-4.4c0-3.5,5.8-3.8,12.1-3.8c6.3,0,12.1,0.3,12.1,3.8
		c0,3.3-4,2.7-5.1,4.4c-0.7,1.1-1,3.4-1,8.8v18.3c0,8.1,1,10.5,2.7,10.5c1.2,0,2.2-0.6,3.6-0.6c1.8,0,4.1,1.8,4.1,10.6
		c0,4.4-0.7,7.8-2.5,7.8c-3.5,0-2.7-5.7-5.5-9.1c-2.2-2.5-3.8-2.8-13.7-2.8c-11.6,0-22.3,0.5-27.2,0.5c-6.3,0-12.1-0.3-12.1-3.8
		c0-3.3,4-2.7,5.1-4.4c0.7-1.1,1-3.4,1-8.8V152.4z"/>
	<path class="st1" d="M1191.2,156.5c-4.8-10.5-4.4-11.7-9-13.8c-1.6-0.7-3.1-1.3-3.1-3.3c0-4.6,8.4-4.1,13.1-4.1
		c4.3,0,12.6-0.5,12.6,3.8c0,2.5-1.3,2.7-3.1,3.4c-1.6,0.7-2,0.8-2,1.7c0,0.5,0.2,2.1,5.2,14.3c4.4,10.4,5.7,12.2,6.4,12.2
		c1.6,0,3.9-7.6,5.1-10.6c1.7-4.4,5-12.8,5-15c0-1.8-1.2-2.3-3-3.5c-1.6-1-2.9-1.4-2.9-3c0-3.4,5.4-3.4,10.6-3.4
		c7.1,0,10.6,0.5,10.6,3.8c0,1.5-0.8,2.1-3,2.7c-0.5,0.1-1.3,0.3-2.1,0.7c-3.1,1.5-4.5,6.1-6.2,10.4l-8.2,20.7
		c-7,17.9-13.3,34.6-26.9,34.6c-5.8,0-9-3.7-9-7.5c0-3.6,2.8-6.3,6.2-6.3c2.8,0,3.9,1.1,5.3,3.5c0.5,0.9,1.1,2,2.3,2
		c3.3,0,8.1-5.9,8.1-11.7c0-4.5-2-9-3.7-12.6L1191.2,156.5z"/>
</g>
</svg>
